<svg height="511pt" viewBox="0 -25 511.97791 511" width="511pt" xmlns="http://www.w3.org/2000/svg"><path d="m101.128906 298.492188c-12.527344 0-23.164062-3.21875-30.863281-9.984376-23.285156-20.460937-36.28125-48.535156-36.613281-79.039062-.359375-33.5 14.933594-66.957031 41.980468-91.785156 53.101563-48.773438 137.078126-52.589844 187.199219-8.515625 7.996094 7.03125 12.289063 17.242187 12.425781 29.554687.324219 29.558594-22.808593 69.347656-60.359374 103.835938-38.65625 35.503906-82.199219 55.933594-113.769532 55.933594zm75.941406-203.121094c-31.84375 0-64.738281 11.773437-89.902343 34.871094-23.472657 21.5625-36.765625 50.378906-36.449219 79.039062.28125 25.597656 11.21875 49.175781 30.8125 66.402344 17.421875 15.316406 71.726562.316406 121.820312-45.703125 33.578126-30.84375 55.105469-66.597657 54.832032-91.085938-.078125-7.441406-2.3125-13.132812-6.621094-16.921875-20.273438-17.832031-46.992188-26.601562-74.492188-26.601562zm-95.667968 28.589844h.085937zm0 0"/><path d="m177.789062 461.238281c-14.761718 0-30.140624-1.765625-46.011718-5.828125-27.199219-6.964844-53.257813-21.171875-75.367188-41.085937l-19.636718-17.6875c-37.515626-33.800781-46.996094-87.964844-25.347657-144.878907 3.019531-8.667968 7.398438-17.953124 13.308594-28.140624 3.132813-5.136719 7.074219-9.703126 12.144531-14.140626 2.429688-2.125 5.851563-2.695312 8.847656-1.476562 2.984376 1.230469 5.035157 4.027344 5.28125 7.253906 1.800782 23.566406 12.355469 44.464844 30.53125 60.445313 17.421876 15.316406 71.726563.316406 121.820313-45.699219 33.578125-30.847656 55.105469-66.597656 54.832031-91.089844-.078125-7.4375-2.3125-13.128906-6.621094-16.917968-11.910156-10.480469-26.375-18.023438-42.988281-22.425782-3.789062-1.007812-6.398437-4.460937-6.347656-8.378906.058594-3.914062 2.78125-7.285156 6.605469-8.171875 11.664062-2.707031 31.859375-7.367187 36.136718-8.160156 25.511719-4.675781 51.160157-15.929688 74.171876-32.550781l1.246093-.898438c9.960938-7.140625 20.300781-13.839844 29.875-19.324219 50.011719-28.695312 105.046875-28.796875 136.941407-.257812.007812.007812.582031.53125.597656.539062 32.304687 29.292969 32.21875 79.796875-.222656 125.660157-6.246094 8.851562-13.753907 18.226562-22.3125 27.894531l-.699219.785156c-18.011719 20.367187-30.230469 43.039063-35.316407 65.53125-12.152343 53.859375-42.023437 105.296875-81.941406 141.125-2.703125 2.429687-5.316406 4.699219-7.867187 6.902344-1.519531 1.484375-3.335938 3.199219-5.214844 4.878906-24.265625 21.855469-82.554687 66.097656-156.445313 66.097656zm-140.46875-225.230469c-4.195312 7.617188-7.535156 14.90625-9.863281 21.59375-19.128906 50.300782-11.347656 97.453126 20.742188 126.355469l19.636719 17.679688c20.066406 18.078125 43.644531 30.957031 68.183593 37.234375 87.257813 22.347656 159.726563-32.023438 186.824219-56.433594 1.726562-1.554688 3.398438-3.125 5.136719-4.796875 2.832031-2.457031 5.351562-4.648437 7.96875-6.996094 37.351562-33.515625 65.304687-81.699219 76.695312-132.1875 5.714844-25.285156 19.273438-50.558593 39.199219-73.101562l.707031-.792969c8.125-9.171875 15.238281-18.066406 21.136719-26.410156 27.21875-38.492188 28.300781-79.941406 2.6875-103.167969-.058594-.0625-.265625-.242187-.265625-.242187-26.65625-23.839844-73.695313-22.910157-117.316406 2.125-9.078125 5.207031-18.925781 11.582031-28.457031 18.421874l-1.144532.804688c-25.101562 18.132812-53.148437 30.410156-81.128906 35.539062-1.140625.210938-3.984375.828126-8.242188 1.773438 8.355469 4.371094 16.042969 9.625 23.011719 15.761719 7.996094 7.03125 12.289063 17.242187 12.425781 29.554687.324219 29.558594-22.808593 69.347656-60.359374 103.835938-54.003907 49.609375-117.539063 69.789062-144.632813 45.949218-16.1875-14.230468-27.507813-32.425781-32.945313-52.5zm0 0"/><path d="m99.03125 378.734375c-17.570312 0-34.839844-2.210937-51.265625-6.65625l-3.148437-.886719c-24.003907-6.9375-41.527344-26.375-43.933594-48.570312-.035156-.144532-.070313-.289063-.097656-.433594-.050782-.289062-.09375-.582031-.117188-.878906-1.816406-22.261719 1.867188-45.660156 10.957031-69.542969 3.019531-8.667969 7.398438-17.953125 13.308594-28.140625 3.132813-5.136719 7.074219-9.703125 12.144531-14.136719 2.429688-2.125 5.851563-2.699219 8.847656-1.476562 2.984376 1.226562 5.035157 4.027343 5.28125 7.25 1.800782 23.570312 12.355469 44.464843 30.53125 60.449219 17.421876 15.316406 71.726563.3125 121.820313-45.703126 33.578125-30.847656 55.105469-66.597656 54.832031-91.085937-.078125-7.441406-2.3125-13.132813-6.621094-16.921875-11.910156-10.476562-26.375-18.019531-42.988281-22.425781-3.789062-1.003907-6.398437-4.460938-6.347656-8.378907.058594-3.914062 2.78125-7.285156 6.605469-8.171874 11.664062-2.707032 31.859375-7.363282 36.136718-8.160157 25.511719-4.675781 51.160157-15.929687 74.171876-32.550781l1.246093-.894531c9.960938-7.144531 20.300781-13.839844 29.875-19.328125 23.890625-13.703125 49.257813-21.167969 73.382813-21.597656.585937.011718 1.152344.035156 1.722656.144531.5625.011719 1.125.035156 1.679688.0625h.019531c14.222656.792969 27.097656 7.652343 35.308593 18.824219 7.464844 10.152343 10.03125 22.761718 7.046876 34.597656-5.828126 23.082031-16.988282 42.554687-32.261719 56.316406-9.292969 8.363281-18.378907 17.320312-27.007813 26.621094-21.492187 23.175781-40.25 50.984375-59.027344 87.515625-39.738281 77.304687-117.601562 119.046875-175.921874 140.457031-24.832032 9.09375-50.8125 13.703125-76.179688 13.703125zm-81.632812-59.789063c.058593.238282.101562.484376.136718.726563 1.390625 16.058594 14.164063 30.015625 31.835938 35.128906l2.867187.800781c36.742188 9.949219 78.335938 7.609376 117.109375-6.621093 55.472656-20.359375 129.410156-59.824219 166.628906-132.234375 19.507813-37.953125 39.113282-66.972656 61.691407-91.316406 8.976562-9.667969 18.429687-18.992188 28.089843-27.695313 12.757813-11.496094 22.144532-28.03125 27.144532-47.820313 1.765625-6.96875.253906-14.1875-4.25-20.308593-5.179688-7.046875-13.371094-11.371094-22.492188-11.894531-.75-.042969-1.527344-.050782-2.289062-.042969-.46875.035156-.953125-.023438-1.421875-.101563-20.804688.65625-42.785157 7.3125-63.671875 19.292969-9.078125 5.207031-18.925782 11.578125-28.457032 18.421875l-1.128906.8125c-25.101562 18.132812-53.148437 30.410156-81.128906 35.539062-1.140625.210938-3.984375.828126-8.242188 1.773438 8.355469 4.371094 16.042969 9.625 23.011719 15.761719 7.996094 7.03125 12.289063 17.242187 12.425781 29.554687.324219 29.558594-22.808593 69.347656-60.359374 103.835938-54.003907 49.609375-117.539063 69.789062-144.632813 45.949218-16.1875-14.222656-27.515625-32.425781-32.945313-52.5-4.195312 7.617188-7.535156 14.90625-9.863281 21.59375-8.121093 21.359376-11.476562 41.921876-10.058593 61.34375zm-8.421876 1.664063h.085938zm0 0"/><path d="m110.90625 179.613281c-4.707031 0-8.53125-3.824219-8.53125-8.53125 0-32.9375 26.792969-59.730469 59.730469-59.730469 4.710937 0 8.53125 3.820313 8.53125 8.53125 0 4.710938-3.820313 8.535157-8.53125 8.535157-23.527344 0-42.664063 19.136719-42.664063 42.664062 0 4.707031-3.816406 8.53125-8.535156 8.53125zm0 0"/></svg>