<svg height="511pt" viewBox="0 -55 511.99981 511" width="511pt" xmlns="http://www.w3.org/2000/svg"><path d="m426.5 37.484375h-228.617188c-.738281-1.578125-1.855468-2.953125-3.355468-3.933594-2.621094-1.710937-5.726563-2.15625-8.671875-1.101562-3.9375 1.089843-7.917969.960937-11.839844-.386719-6.398437-2.203125-13.199219-2.691406-20.09375-1.496094 1.585937-6.554687 2.410156-13.300781 2.410156-20.066406 0-5.523438-4.476562-10-10-10-5.523437 0-10 4.476562-10 10 0 9.480469-2.09375 18.910156-6.074219 27.503906-2.058593-.335937-4.148437-.523437-6.273437-.523437h-47.824219c-2.390625 0-4.738281.21875-7.03125.632812-4.019531-8.621093-6.128906-18.089843-6.128906-27.613281 0-5.523438-4.476562-10-10-10s-10 4.476562-10 10c0 6.789062.828125 13.554688 2.425781 20.136719-7.015625-1.277344-13.9375-.816407-20.445312 1.425781-3.925781 1.347656-7.914063 1.476562-11.835938.386719-2.941406-1.054688-6.050781-.613281-8.675781 1.101562-2.648438 1.730469-4.152344 4.675781-4.34375 7.835938-2.007812 33.683593 20.28125 47.847656 40.265625 49.832031l20.816406 58.808594c.226563.636718.507813 1.234375.839844 1.789062-.914063 2.886719-1.414063 5.953125-1.414063 9.140625 0 9.21875 4.148438 17.480469 10.667969 23.035157-.34375 1.011718-.539062 2.097656-.539062 3.226562v25.78125c0 14.878906 5.132812 28.585938 13.71875 39.4375v120.046875c0 16.539063 13.457031 30 30 30 7.664062 0 14.664062-2.894531 19.972656-7.644531 5.308594 4.75 12.308594 7.644531 19.976563 7.644531 16.539062 0 30-13.460937 30-30v-95.820313h187.570312v95.820313c0 16.539063 13.457031 30 30 30 7.675781 0 14.6875-2.902344 20-7.664063 5.3125 4.761719 12.320312 7.664063 20 7.664063 16.542969 0 30-13.460937 30-30v-241.503906c0-1.628907-.398438-3.164063-1.089844-4.523438-4.101562-28.203125-19.558594-52.769531-41.570312-68.902343 34.800781 1.492187 62.660156 30.261718 62.660156 65.429687v97.5c0 5.519531 4.476562 10 10 10s10-4.480469 10-10v-97.5c0-47.144531-38.355469-85.5-85.5-85.5zm-368.480469 43.601563c-.117187-.457032-.230469-.96875-.332031-1.550782-.863281-4.757812-5.003906-8.21875-9.839844-8.21875h-5.476562c-7.492188-.726562-18.675782-4.222656-21.632813-18.210937 3.628907-.210938 7.242188-.921875 10.753907-2.132813 5.050781-1.738281 10.632812-1.316406 16.609374 1.257813 1.5 1.023437 4.148438 2.921875 8.738282 6.421875 3.078125 2.351562 7.242187 2.707031 10.679687.921875 2.667969-1.386719 5.574219-2.089844 8.640625-2.089844h47.824219c2.882813 0 5.636719.628906 8.191406 1.867187 3.390625 1.652344 7.421875 1.25 10.425781-1.035156 4.328126-3.292968 6.851563-5.101562 8.292969-6.085937 5.976563-2.574219 11.5625-2.996094 16.613281-1.257813 2.285157.785156 4.613282 1.339844 6.960938 1.707032.773438 1.269531 1.820312 2.355468 3.0625 3.171874-3.753906 11.707032-13.929688 14.789063-20.902344 15.46875h-4.328125c-4.835937 0-8.980469 3.457032-9.839843 8.21875-.105469.578126-.214844 1.089844-.335938 1.546876l-18.792969 53.097656c-4.210937-2.222656-9-3.488282-14.082031-3.488282h-18.351562c-5.085938 0-9.875 1.265626-14.085938 3.488282zm22.613281 79.871093c0-5.660156 4.605469-10.261719 10.265626-10.261719h18.347656c5.660156 0 10.265625 4.601563 10.265625 10.261719 0 5.660157-4.605469 10.261719-10.265625 10.261719h-18.347656c-5.660157 0-10.265626-4.605469-10.265626-10.261719zm33.847657 221.527344c-5.515625 0-10-4.488281-10-10v-103.328125c6.125 3.28125 12.835937 5.597656 19.945312 6.726562v96.601563c0 .230469.011719.460937.019531.691406-.359374 5.191407-4.683593 9.308594-9.964843 9.308594zm59.949219-150.105469c-5.523438 0-10 4.476563-10 10v130.105469c0 5.511719-4.488282 10-10 10-5.28125 0-9.609376-4.117187-9.964844-9.308594.003906-.230469.015625-.460937.015625-.691406 0-.351563-.015625-.691406-.050781-1.03125v-104.789063c0-5.523437-4.480469-10-10-10-24.078126 0-43.667969-19.589843-43.667969-43.667968v-21.78125c.046875 0 .089843.003906.136719.003906h18.347656c10.277344 0 19.367187-5.152344 24.839844-13.007812.132812.007812.261718.019531.394531.019531h35.644531c6.269531 0 11.375 5.105469 11.375 11.375 0 17.300781 14.074219 31.375 31.375 31.375h5.417969c6.269531 0 11.375 5.105469 11.375 11.375v24.308593h-45.238281v-14.289062c0-5.519531-4.480469-9.996094-10-9.996094zm227.570312 150.105469c-5.515625 0-10-4.488281-10-10v-80.914063c6.144531 3.175782 12.878906 5.367188 20 6.332032v74.582031c0 5.511719-4.488281 10-10 10zm50-10c0 5.511719-4.488281 10-10 10-5.515625 0-10-4.488281-10-10v-84.015625c0-5.523438-4.476562-10-10-10h-1.613281c-23.1875 0-42.054688-18.867188-42.054688-42.054688 0-5.523437-4.476562-10-10-10-5.523437 0-10 4.476563-10 10 0 7.089844 1.207031 13.898438 3.40625 20.25h-112.074219v-24.308593c0-17.296875-14.074218-31.375-31.375-31.375h-5.414062c-6.273438 0-11.375-5.101563-11.375-11.375 0-17.296875-14.078125-31.375-31.375-31.375h-30.742188c-.199218-2.214844-.636718-4.367188-1.289062-6.421875.332031-.554688.617188-1.144532.84375-1.78125l20.863281-58.941406c16.113281-1.984376 33.359375-11.925782 37.988281-33.605469h31.875v2.132812c0 33.746094 27.457032 61.203125 61.203126 61.203125 6.320312 0 11.464843 5.144532 11.464843 11.464844v1.535156c0 29.222656 23.777344 53 53 53 29.222657 0 53-23.777344 53-53 0-6.324218 5.144531-11.46875 11.464844-11.46875h29.976563c1.441406 6.152344 2.226562 12.554688 2.226562 19.136719zm-9.707031-270.132813h-22.492188c-17.351562 0-31.46875 14.113282-31.46875 31.464844 0 18.195313-14.800781 33-33 33-18.195312 0-33-14.804687-33-33v-1.535156c0-17.347656-14.113281-31.464844-31.464843-31.464844-22.71875 0-41.199219-18.480468-41.199219-41.203125v-2.132812h118.328125c32.195312.003906 60.199218 18.214843 74.296875 44.871093zm0 0"/><path d="m502 248.152344c-2.628906 0-5.210938 1.070312-7.070312 2.929687-1.859376 1.859375-2.929688 4.429688-2.929688 7.070313 0 2.628906 1.070312 5.210937 2.929688 7.070312 1.859374 1.859375 4.441406 2.929688 7.070312 2.929688s5.210938-1.070313 7.070312-2.929688c1.859376-1.871094 2.929688-4.441406 2.929688-7.070312s-1.070312-5.210938-2.929688-7.070313c-1.859374-1.859375-4.441406-2.929687-7.070312-2.929687zm0 0"/><path d="m79.667969 103.980469c2.632812 0 5.210937-1.058594 7.070312-2.929688 1.859375-1.859375 2.929688-4.429687 2.929688-7.070312 0-2.628907-1.070313-5.210938-2.929688-7.070313s-4.4375-2.929687-7.070312-2.929687c-2.640625 0-5.210938 1.070312-7.070313 2.929687-1.867187 1.859375-2.929687 4.441406-2.929687 7.070313 0 2.640625 1.0625 5.210937 2.929687 7.070312 1.859375 1.871094 4.441406 2.929688 7.070313 2.929688zm0 0"/><path d="m120.5 103.980469c2.628906 0 5.210938-1.058594 7.070312-2.929688 1.859376-1.859375 2.929688-4.441406 2.929688-7.070312 0-2.628907-1.070312-5.199219-2.929688-7.070313-1.859374-1.859375-4.441406-2.929687-7.070312-2.929687-2.632812 0-5.210938 1.070312-7.070312 2.929687-1.859376 1.859375-2.929688 4.441406-2.929688 7.070313 0 2.640625 1.070312 5.210937 2.929688 7.070312 1.859374 1.871094 4.4375 2.929688 7.070312 2.929688zm0 0"/></svg>