<?xml version="1.0" encoding="iso-8859-1"?>
<!-- Generator: Adobe Illustrator 19.0.0, SVG Export Plug-In . SVG Version: 6.00 Build 0)  -->
<svg version="1.1" id="Capa_1" xmlns="http://www.w3.org/2000/svg" xmlns:xlink="http://www.w3.org/1999/xlink" x="0px" y="0px"
	 viewBox="0 0 512 512" style="enable-background:new 0 0 512 512;" xml:space="preserve">
<g>
	<g>
		<g>
			<path d="M256,0C114.844,0,0,114.844,0,256s114.844,256,256,256s256-114.844,256-256S397.156,0,256,0z M256,490.667
				C126.604,490.667,21.333,385.396,21.333,256S126.604,21.333,256,21.333S490.667,126.604,490.667,256S385.396,490.667,256,490.667
				z"/>
			<path d="M256,208c-26.469,0-48,21.531-48,48s21.531,48,48,48s48-21.531,48-48S282.469,208,256,208z M256,282.667
				c-14.708,0-26.667-11.958-26.667-26.667s11.958-26.667,26.667-26.667s26.667,11.958,26.667,26.667S270.708,282.667,256,282.667z"
				/>
			<path d="M176,288c-26.469,0-48,21.531-48,48s21.531,48,48,48s48-21.531,48-48S202.469,288,176,288z M176,362.667
				c-14.708,0-26.667-11.958-26.667-26.667c0-14.708,11.958-26.667,26.667-26.667s26.667,11.958,26.667,26.667
				C202.667,350.708,190.708,362.667,176,362.667z"/>
			<path d="M336,128c-26.469,0-48,21.531-48,48s21.531,48,48,48s48-21.531,48-48S362.469,128,336,128z M336,202.667
				c-14.708,0-26.667-11.958-26.667-26.667s11.958-26.667,26.667-26.667c14.708,0,26.667,11.958,26.667,26.667
				S350.708,202.667,336,202.667z"/>
			<path d="M426.646,177.792c-0.49-23.313-15.313-67.875-15.948-69.76c-1.063-3.177-3.552-5.667-6.729-6.729
				c-1.885-0.635-46.469-15.469-69.792-15.948c-40.135-0.802-76.573,23.969-90.552,61.698c-3.458,9.333-11.188,16.875-21.198,20.688
				c-25.156,9.604-45.083,29.531-54.688,54.688c-3.813,10.01-11.354,17.74-20.677,21.198c-37.76,13.99-62.563,50.396-61.708,90.583
				c0.49,23.292,15.146,67.99,15.76,69.885c1.063,3.208,3.583,5.729,6.792,6.781c1.896,0.625,46.615,15.292,69.917,15.771
				c0.656,0.01,1.302,0.021,1.958,0.021c39.406,0,74.844-24.604,88.594-61.719c3.458-9.333,11.188-16.875,21.198-20.688
				c25.156-9.604,45.083-29.531,54.688-54.688c3.813-10.01,11.354-17.74,20.677-21.198
				C402.698,254.385,427.5,217.979,426.646,177.792z M357.521,248.375c-15.094,5.594-27.188,17.844-33.198,33.594
				c-7.427,19.49-22.865,34.927-42.354,42.354c-15.76,6.01-28,18.115-33.594,33.208c-10.833,29.229-39.99,48.354-70.115,47.781
				c-14.719-0.302-43.646-8.417-58.521-13.052c-4.635-14.865-12.75-43.76-13.052-58.5c-0.667-31.115,18.542-59.292,47.792-70.135
				c15.094-5.594,27.188-17.844,33.198-33.594c7.427-19.49,22.865-34.927,42.354-42.354c15.76-6.01,28-18.115,33.594-33.208
				c10.833-29.229,39.688-48.563,70.115-47.781c14.719,0.302,43.563,8.51,58.375,13.198c4.677,14.792,12.896,43.615,13.198,58.354
				C405.979,209.354,386.771,237.531,357.521,248.375z"/>
		</g>
	</g>
</g>
<g>
</g>
<g>
</g>
<g>
</g>
<g>
</g>
<g>
</g>
<g>
</g>
<g>
</g>
<g>
</g>
<g>
</g>
<g>
</g>
<g>
</g>
<g>
</g>
<g>
</g>
<g>
</g>
<g>
</g>
</svg>
