<?xml version='1.0' encoding='iso-8859-1'?>
<!DOCTYPE svg PUBLIC '-//W3C//DTD SVG 1.1//EN' 'http://www.w3.org/Graphics/SVG/1.1/DTD/svg11.dtd'>
<svg version="1.1" xmlns="http://www.w3.org/2000/svg" viewBox="0 0 307.786 307.786" xmlns:xlink="http://www.w3.org/1999/xlink" enable-background="new 0 0 307.786 307.786">
  <g>
    <path d="m306.902,35.904c-3.271-10.776-14.657-16.86-25.433-13.589l-174.653,53.01c-9.675-14.94-31.647-22.287-54.263-16.746-27.091,6.638-57.167,32.269-51.96,53.52 5.207,21.251 43.726,30.074 70.817,23.436 22.616-5.542 38.703-22.214 40.375-39.935l179.375-33.736c0.711-0.135 1.445-0.313 2.153-0.528 10.776-3.27 16.86-14.657 13.589-25.432z"/>
    <circle cx="55.97" cy="174.723" r="12.5"/>
    <circle cx="30.024" cy="224.234" r="12.5"/>
    <circle cx="81.916" cy="224.234" r="12.5"/>
    <circle cx="55.97" cy="273.856" r="12.5"/>
  </g>
</svg>
