<?xml version="1.0" encoding="iso-8859-1"?>
<!-- Generator: Adobe Illustrator 19.0.0, SVG Export Plug-In . SVG Version: 6.00 Build 0)  -->
<svg version="1.1" id="Layer_1" xmlns="http://www.w3.org/2000/svg" xmlns:xlink="http://www.w3.org/1999/xlink" x="0px" y="0px"
	 viewBox="0 0 511.996 511.996" style="enable-background:new 0 0 511.996 511.996;" xml:space="preserve">
<g>
	<g>
		<g>
			<path d="M424.185,275.217c-0.016-0.031-0.016-0.062-0.031-0.078c-8.906-43.805-23.047-68.984-34.422-89.226
				c-7.859-13.984-14.062-25.023-16.594-38.539c-5.219-27.812,13.484-106.069,21.141-133.874c0.875-3.211,0.219-6.648-1.812-9.297
				C390.451,1.555,387.326,0,383.998,0H128c-3.344,0-6.469,1.555-8.484,4.203c-2.031,2.648-2.688,6.086-1.812,9.297
				c7.656,27.805,26.359,106.062,21.141,133.874c-2.531,13.516-8.734,24.555-16.594,38.539
				c-11.375,20.241-25.516,45.421-34.422,89.226c-0.016,0.016-0.016,0.047-0.031,0.078c0,0.031-0.016,0.094-0.016,0.125
				c-15.156,75.154,49.016,223.936,51.766,230.248c1.688,3.891,5.53,6.406,9.78,6.406h213.326c4.25,0,8.094-2.516,9.781-6.406
				c2.75-6.312,66.921-155.094,51.766-230.248C424.2,275.31,424.185,275.248,424.185,275.217z M140.844,196.365
				c8.468-15.077,15.78-28.093,18.968-45.062c3.078-16.445,0.344-45.734-8.156-87.077c-3.484-17.023-7.218-32.477-9.843-42.891
				h228.356c-2.625,10.414-6.359,25.867-9.844,42.891c-8.5,41.343-11.234,70.632-8.156,87.077
				c3.188,16.969,10.5,29.984,18.969,45.062c9.969,17.734,21.109,37.586,29.25,70.305H111.594
				C119.734,233.951,130.875,214.1,140.844,196.365z M245.326,490.668h-88.921c-5.234-12.672-17.218-42.688-28.03-77.438
				c-15.25-49.016-22.547-88.998-21.5-117.201l138.451,93.623V490.668z M133.078,287.998h245.825l-122.905,83.123L133.078,287.998z
				 M383.606,413.23c-10.812,34.75-22.797,64.766-28.031,77.438h-88.921V389.652l138.452-93.623
				C406.153,324.232,398.856,364.215,383.606,413.23z"/>
			<path d="M104.906,144.538c2.734-4.141,2.281-9.766-1.375-13.414l-32-32c-4.156-4.163-10.922-4.163-15.078,0
				c-4.172,4.172-4.172,10.922,0,15.086l13.781,13.789H10.657c-5.891,0-10.656,4.781-10.656,10.672s4.766,10.664,10.656,10.664
				h59.577l-13.781,13.789c-4.172,4.172-4.172,10.922,0,15.086c2.078,2.086,4.812,3.125,7.547,3.125
				c2.719,0,5.453-1.039,7.531-3.125l32-32C104.062,145.694,104.516,145.132,104.906,144.538z"/>
			<path d="M501.323,127.999h-59.577l13.781-13.789c4.172-4.164,4.172-10.914,0-15.086c-4.156-4.163-10.922-4.163-15.078,0
				l-31.999,32c-3.641,3.648-4.109,9.273-1.375,13.414c0.391,0.594,0.844,1.156,1.375,1.672l31.999,32
				c2.078,2.086,4.812,3.125,7.547,3.125c2.719,0,5.453-1.039,7.531-3.125c4.172-4.164,4.172-10.914,0-15.086l-13.781-13.789h59.577
				c5.891,0,10.672-4.773,10.672-10.664C511.995,132.78,507.214,127.999,501.323,127.999z"/>
		</g>
	</g>
</g>
<g>
</g>
<g>
</g>
<g>
</g>
<g>
</g>
<g>
</g>
<g>
</g>
<g>
</g>
<g>
</g>
<g>
</g>
<g>
</g>
<g>
</g>
<g>
</g>
<g>
</g>
<g>
</g>
<g>
</g>
</svg>
