<svg height="511pt" viewBox="-5 1 511 511.99901" width="511pt" xmlns="http://www.w3.org/2000/svg"><path d="m441.867188 291.144531c.316406-4.824219.488281-9.667969.488281-14.535156v-40c10.230469-9.949219 19.347656-19.730469 27.152343-29.179687 29.730469-35.996094 39.382813-65.523438 27.914063-85.386719-8.523437-14.765625-27.035156-22.046875-55.066406-21.710938v-31.257812c0-9.535157-7.753907-17.289063-17.289063-17.289063h-70.289062v-34.496094c0-9.53125-7.757813-17.289062-17.289063-17.289062h-32.0625c-4.144531 0-7.5 3.355469-7.5 7.5s3.355469 7.5 7.5 7.5h32.0625c1.261719 0 2.289063 1.027344 2.289063 2.289062v34.496094h-176.882813v-34.496094c0-1.261718 1.027344-2.289062 2.289063-2.289062h106.0625c4.140625 0 7.5-3.355469 7.5-7.5s-3.359375-7.5-7.5-7.5h-106.0625c-9.535156 0-17.289063 7.757812-17.289063 17.289062v34.496094h-70.289062c-9.535157 0-17.289063 7.753906-17.289063 17.289063v31.257812c-28.03125-.335937-46.542968 6.945313-55.066406 21.710938-16.105469 27.894531 10.351562 70.984375 55.066406 114.476562v40.089844c0 4.867187.160156 9.71875.480469 14.539063-50.417969 48.9375-70.15625 89.75-55.546875 115.050781 8.277344 14.339843 26.632812 21.707031 53.605469 21.707031 6.554687 0 13.625-.4375 21.179687-1.3125 10.402344-1.207031 21.601563-3.230469 33.441406-5.992188 16.304688 19.140626 35.949219 35.632813 58.363282 48.480469l70.898437 40.636719c2.652344 1.519531 5.625 2.28125 8.597657 2.28125 2.972656 0 5.945312-.761719 8.597656-2.28125l56.679687-32.488281c3.59375-2.058594 4.839844-6.644531 2.777344-10.238281-2.058594-3.59375-6.644531-4.835938-10.234375-2.773438l-56.683594 32.488281c-.703125.402344-1.574218.402344-2.277344 0l-70.894531-40.636719c-18.691406-10.714843-35.316406-24.148437-49.492187-39.632812 5.023437-1.390625 10.148437-2.910156 15.359375-4.539062 11.570312 11.65625 24.757812 21.867187 39.347656 30.230468l59.035156 33.839844c2.402344 1.375 5.09375 2.0625 7.785157 2.0625 2.691406 0 5.382812-.6875 7.78125-2.0625l59.035156-33.839844c14.59375-8.363281 27.78125-18.574218 39.351562-30.234375 5.226563 1.636719 10.363282 3.15625 15.398438 4.550781-10.164063 11.078126-21.59375 21.136719-34.1875 29.90625-3.398438 2.363282-4.234375 7.039063-1.867188 10.4375 1.457032 2.09375 3.789063 3.21875 6.160156 3.21875 1.480469 0 2.972657-.4375 4.277344-1.347656 15.738282-10.957031 29.777344-23.785156 41.949219-38.050781 11.707031 2.726563 22.796875 4.738281 33.101563 5.945313 7.671874.902343 14.835937 1.347656 21.480468 1.347656 26.972656 0 45.328125-7.367188 53.605469-21.703125 14.609375-25.300781-5.128906-66.117188-55.554687-115.054688zm42.566406-161.601562c7.832031 13.5625-1.824219 38.472656-26.492188 68.332031-4.707031 5.699219-9.921875 11.53125-15.585937 17.453125v-99.996094c21.769531-.253906 36.589843 4.710938 42.078125 14.210938zm-440.484375 67.382812c-24.078125-29.421875-33.445313-53.980469-25.710938-67.382812 5.488281-9.5 20.308594-14.464844 42.078125-14.210938v28.582031c0 4.144532 3.355469 7.5 7.5 7.5 4.140625 0 7.5-3.355468 7.5-7.5v-74.839843c0-1.261719 1.027344-2.289063 2.289063-2.289063h347.460937c1.265625 0 2.292969 1.027344 2.292969 2.289063v161.148437c-4.988281 4.722656-10.226563 9.484375-15.703125 14.261719v-143.082031c0-8.628906-7.023438-15.652344-15.652344-15.652344h-289.332031c-8.628906 0-15.652344 7.023438-15.652344 15.652344v143.074218c-5.472656-4.773437-10.71875-9.53125-15.703125-14.253906v-52.132812c0-4.140625-3.359375-7.5-7.5-7.5-4.144531 0-7.5 3.359375-7.5 7.5v37.238281c-5.984375-6.253906-11.460937-12.40625-16.367187-18.402344zm266.523437 181.789063c21.257813-15.953125 35.882813-40.277344 38.960938-68.035156 16.695312-11.226563 32.527344-22.746094 47.21875-34.320313v4.410156c0 42.550781-15.980469 83.019531-43.578125 113.945313-13.636719-4.539063-27.882813-9.886719-42.601563-16zm-160.875 16c-27.597656-30.921875-43.578125-71.394532-43.578125-113.945313v-4.457031c14.496094 11.445312 29.78125 22.585938 45.378907 33.132812.570312.382813 1.179687.667969 1.800781.878907 2.988281 27.90625 17.652343 52.367187 39 68.390625-14.714844 6.117187-28.960938 11.460937-42.601563 16zm18.035156-94.980469c0-25.9375 29.53125-83.730469 79-154.597656 1.089844-1.558594 2.804688-2.453125 4.703126-2.453125 1.898437 0 3.613281.894531 4.703124 2.453125 49.46875 70.867187 79 128.660156 79 154.597656 0 46.15625-37.546874 83.707031-83.703124 83.707031s-83.703126-37.550781-83.703126-83.707031zm181.914063-7.28125c-2.332031-18.320313-12.921875-44.386719-31.574219-77.664063-16.75-29.894531-36.238281-59.046874-49.632812-78.238281-3.875-5.550781-10.234375-8.867187-17.003906-8.867187-6.769532 0-13.125 3.316406-17 8.867187-13.398438 19.191407-32.882813 48.34375-49.636719 78.238281-18.648438 33.277344-29.238281 59.339844-31.570313 77.660157-16.804687-11.609375-32.613281-23.46875-47.109375-35.3125v-155.734375c0-.355469.292969-.648438.652344-.648438h289.332031c.359375 0 .652344.292969.652344.648438v155.738281c-14.496094 11.839844-30.304688 23.703125-47.109375 35.3125zm-271.242187 119.238281c-31.765626 3.6875-53.101563-.925781-60.066407-12.992187-9.679687-16.765625 7.347657-50.082031 44.660157-88.453125 5.460937 35.394531 19.421874 68.75 40.269531 97.289062-8.71875 1.84375-17.039063 3.25-24.863281 4.15625zm40.8125-7.90625c-27.890626-35.820312-43.800782-80.464844-43.800782-127.175781v-26.082031c5.070313 4.550781 10.316406 9.089844 15.703125 13.597656v16.644531c0 43.984375 15.695313 85.929688 43.019531 118.855469-5.078124 1.511719-10.054687 2.898438-14.921874 4.160156zm191.578124 25.332032-59.035156 33.835937c-.199218.117187-.445312.117187-.648437 0l-59.035157-33.835937c-11.167968-6.402344-21.4375-13.992188-30.703124-22.539063 14.96875-5.195313 30.566406-11.273437 46.636718-18.21875 13.113282 6.449219 27.851563 10.082031 43.429688 10.082031 15.574218 0 30.316406-3.632812 43.433594-10.085937 16.066406 6.945312 31.660156 13.027343 46.628906 18.222656-9.269532 8.546875-19.535156 16.136719-30.707032 22.539063zm57.941407-29.492188c27.320312-32.929688 43.019531-74.871094 43.019531-118.855469v-16.578125c5.429688-4.539062 10.667969-9.074218 15.703125-13.589844v26.007813c0 46.644531-15.761719 91.289063-43.738281 127.1875-4.890625-1.261719-9.886719-2.65625-14.984375-4.171875zm115.796875-.925781c-6.988282 12.105469-28.421875 16.707031-60.347656 12.960937-7.71875-.90625-15.917969-2.296875-24.503907-4.109375 20.890625-28.585937 34.777344-61.9375 40.207031-97.289062 37.300782 38.363281 54.324219 71.671875 44.644532 88.4375zm0 0"/><path d="m188.089844 127.160156h-56.292969c-4.140625 0-7.5 3.359375-7.5 7.5 0 4.144532 3.359375 7.5 7.5 7.5h56.292969c4.140625 0 7.5-3.355468 7.5-7.5 0-4.140625-3.359375-7.5-7.5-7.5zm0 0"/><path d="m168.507812 157.046875h-36.710937c-4.140625 0-7.5 3.355469-7.5 7.5s3.359375 7.5 7.5 7.5h36.710937c4.144532 0 7.5-3.355469 7.5-7.5s-3.355468-7.5-7.5-7.5zm0 0"/><path d="m148.929688 186.933594h-17.128907c-4.144531 0-7.503906 3.355468-7.503906 7.5 0 4.140625 3.359375 7.5 7.503906 7.5h17.128907c4.140624 0 7.5-3.359375 7.5-7.5 0-4.144532-3.359376-7.5-7.5-7.5zm0 0"/><path d="m370.875 127.160156h-56.292969c-4.140625 0-7.5 3.359375-7.5 7.5 0 4.144532 3.359375 7.5 7.5 7.5h56.292969c4.140625 0 7.5-3.355468 7.5-7.5 0-4.140625-3.355469-7.5-7.5-7.5zm0 0"/><path d="m370.875 157.046875h-36.710938c-4.140624 0-7.5 3.355469-7.5 7.5s3.359376 7.5 7.5 7.5h36.710938c4.140625 0 7.5-3.355469 7.5-7.5s-3.355469-7.5-7.5-7.5zm0 0"/><path d="m370.875 186.933594h-17.128906c-4.144532 0-7.503906 3.355468-7.503906 7.5 0 4.140625 3.359374 7.5 7.503906 7.5h17.128906c4.140625 0 7.5-3.359375 7.5-7.5 0-4.144532-3.355469-7.5-7.5-7.5zm0 0"/></svg>