<svg height="511pt" viewBox="0 -34 511.99622 511" width="511pt" xmlns="http://www.w3.org/2000/svg"><path d="m168.886719 444.371094c-73.164063 0-124.058594-26.664063-149.296875-43.894532-9.738282-6.648437-16.378906-16.738281-18.707032-28.429687-4.847656-24.386719 10.949219-48.199219 35.222657-53.082031l13.367187-2.6875c.46875-.09375.953125-.152344 1.433594-.160156 322.835938-9.269532 390.9375-242.507813 395.28125-258.84375v-30.640626c0-14.40625 11.6875-26.132812 26.042969-26.132812h9.429687c7.648438 0 14.875 3.351562 19.828125 9.199219 4.984375 5.871093 7.117188 13.613281 5.855469 21.226562l-6.09375 36.785157.910156 3.203124c33.816406 120.597657-21.617187 249.945313-134.816406 314.539063-77.492188 44.203125-144.117188 58.917969-198.457031 58.917969zm-116.761719-111.210938-12.65625 2.542969c-15.066406 3.03125-24.871094 17.839844-21.851562 33.015625 1.453124 7.269531 5.566406 13.542969 11.59375 17.65625 41.34375 28.226562 156.214843 83.199219 329.671874-15.761719 106.382813-60.703125 158.539063-182.054687 126.839844-295.109375l-1.40625-4.90625c-.359375-1.238281-.4375-2.527344-.230468-3.789062l6.40625-38.683594c.445312-2.660156-.296876-5.351562-2.03125-7.398438-1.722657-2.03125-4.136719-3.160156-6.800782-3.160156h-9.429687c-4.941407 0-8.972657 4.074219-8.972657 9.066406v31.714844c0 .65625-.074218 1.316406-.230468 1.957032-.613282 2.617187-65.71875 262.5625-410.902344 272.855468zm0 0"/><path d="m128.019531 360.839844c-4.171875 0-7.816406-3.054688-8.433593-7.296875-.683594-4.671875 2.554687-8.996094 7.214843-9.679688 51.738281-7.546875 99.753907-21.621093 142.695313-41.832031 4.269531-2.003906 9.347656-.179688 11.359375 4.089844 2.015625 4.265625.179687 9.34375-4.085938 11.359375-44.46875 20.929687-94.089843 35.488281-147.503906 43.28125-.425781.042969-.835937.078125-1.246094.078125zm0 0"/><path d="m346.210938 356.914062c-2.964844 0-5.847657-1.546874-7.425782-4.304687-2.339844-4.085937-.914062-9.300781 3.183594-11.640625 80.808594-46.105469 126.984375-132.914062 117.628906-221.140625-.496094-4.6875 2.902344-8.894531 7.585938-9.390625 4.722656-.425781 8.894531 2.910156 9.390625 7.589844 10.0625 94.96875-39.449219 188.296875-126.148438 237.765625-1.332031.761719-2.78125 1.121093-4.214843 1.121093zm0 0"/><path d="m87.519531 331.050781c-1.109375 0-2.21875-.210937-3.25-.640625-34.507812-14.21875-58.125-32.996094-71.855469-46.234375-7.75-7.484375-12.15625-17.539062-12.4023432-28.300781-.2499998-10.8125 3.7460932-21.082031 11.2578122-28.898438 7.613281-7.9375 17.90625-12.417968 28.976563-12.617187l12.210937-.210937c.480469.023437.949219.023437 1.417969.09375 154.324219 23.113281 251.792969-22.414063 306.410156-64.6875 54.734375-42.378907 78.308594-89.574219 81.542969-96.429688l4.488281-25.117188c.777344-4.34375 4.753906-7.367187 9.160156-7 4.402344.394532 7.78125 4.078126 7.78125 8.5v28.859376c0 .65625-.074218 1.3125-.230468 1.953124-.570313 2.441407-61.128906 244.296876-374.789063 270.714844-.238281.007813-.480469.015625-.71875.015625zm-35.460937-99.832031-11.507813.203125c-6.492187.121094-12.519531 2.730469-16.957031 7.367187-4.34375 4.523438-6.65625 10.453126-6.511719 16.695313.144531 6.246094 2.695313 12.074219 7.195313 16.410156 12.410156 11.96875 33.609375 28.859375 64.601562 41.949219 156.0625-13.6875 244.816406-82.566406 291.835938-138.078125 20.144531-23.777344 34.585937-47.214844 44.699218-66.933594-49.714843 61.308594-162.003906 153.792969-373.355468 122.386719zm0 0"/><path d="m181.925781 235.269531c-.664062 0-1.320312-.074219-1.96875-.226562-96.925781-22.996094-137.46875-83.867188-150.398437-108.976563-4.316406-8.375-5.136719-17.941406-2.304688-26.9375 2.84375-9.03125 9.046875-16.402344 17.472656-20.773437 8.535157-4.421875 18.316407-5.234375 27.523438-2.289063l9.792969 3.132813c.449219.144531.886719.332031 1.3125.546875 213.886719 110.359375 341.007812-12.648438 351.054687-22.941406l10.667969-19.316407c2.023437-3.652343 6.394531-5.316406 10.328125-3.917969 3.933594 1.402344 6.28125 5.4375 5.546875 9.550782l-2.515625 14.066406c-.121094.65625-.316406 1.296875-.582031 1.921875-.683594 1.550781-70.207031 155.320313-275.074219 176.128906-.28125.023438-.574219.03125-.855469.03125zm-120.726562-143.875c-2.980469 0-5.925781.710938-8.621094 2.109375-4.363281 2.261719-7.570313 6.078125-9.046875 10.746094-1.46875 4.675781-1.042969 9.644531 1.195312 13.996094 11.785157 22.890625 48.75 78.242187 137.761719 99.851562 127.371094-13.375 199.175781-80.066406 233.65625-124.703125-53.136719 36.179688-171.492187 88.5-339.984375 1.84375l-9.113281-2.921875c-1.921875-.605468-3.894531-.921875-5.847656-.921875zm0 0"/></svg>